# xmcd CD database file
#
# Track frame offsets:
#	150
#	20300
#	39200
#	59150
#	77987
#	98787
#	120387
#	141937
#	161212
#	181662
#	201662
#	222125
#
# Disc length: 3195 seconds
#
# Revision: 0
# Processed by: cddbd v1.5.2PL0 Copyright (c) Steve Scherf et al.
# Submitted via: CDex 1.70beta2
#
DISCID=a80c790c
DTITLE=香西かおり - 恋慕川 (しのびがわ)
DYEAR=1994
DGENRE=Blues
TTITLE0=越後しのび恋
TTITLE1=酔待酒
TTITLE2=小夜しぐれ
TTITLE3=心凍らせて
TTITLE4=なさけ酒
TTITLE5=恋嵐･夢一夜
TTITLE6=恋慕川
TTITLE7=朝顔
TTITLE8=影法師
TTITLE9=彼岸花
TTITLE10=カルアと夏に抱かれて
TTITLE11=約束
EXTD=YEAR: 1994
EXTT0=
EXTT1=
EXTT2=
EXTT3=
EXTT4=
EXTT5=
EXTT6=
EXTT7=
EXTT8=
EXTT9=
EXTT10=
EXTT11=
PLAYORDER=
